<svg id="Layer_1" data-name="Layer 1" xmlns="http://www.w3.org/2000/svg" viewBox="0 0 650.01 138.15"><defs><style>.cls-1{fill:#005fae;}</style></defs><g id="Layer_1-2" data-name="Layer 1"><path d="M184.15,113h4.45l4.51,19.11h.07l5-19.11h4.48l4.9,19.11h.07L212.29,113h4.44l-6.89,25h-4.45l-5-19.11h-.07L195.21,138h-4.52Z" transform="translate(0 -0.44)"/><path d="M228.39,113h4.38v25h-4.38Z" transform="translate(0 -0.44)"/><path d="M246.7,113h4.62l11.41,18.41h.07V113H267v25h-4.62L251,119.58h-.11V138H246.7Z" transform="translate(0 -0.44)"/><path d="M280.89,113h10.36a11.65,11.65,0,0,1,5,1,9.16,9.16,0,0,1,3.43,2.68,11.4,11.4,0,0,1,2,4,18.67,18.67,0,0,1,0,9.73,11.58,11.58,0,0,1-2,4,9.36,9.36,0,0,1-3.43,2.68,11.8,11.8,0,0,1-5,1H280.89Zm4.38,21.42h4.3a11.25,11.25,0,0,0,4.18-.68,6.31,6.31,0,0,0,2.56-1.89,6.93,6.93,0,0,0,1.26-2.84,19.15,19.15,0,0,0,0-7,6.88,6.88,0,0,0-1.26-2.84,6.22,6.22,0,0,0-2.56-1.89,10.86,10.86,0,0,0-4.18-.68h-4.3Z" transform="translate(0 -0.44)"/><path d="M325.55,112.38a11.65,11.65,0,0,1,5,1,11.41,11.41,0,0,1,3.77,2.84,13,13,0,0,1,2.38,4.24,16.07,16.07,0,0,1,0,10.12,13,13,0,0,1-2.36,4.17,11.22,11.22,0,0,1-3.77,2.81,12.68,12.68,0,0,1-10,0,11,11,0,0,1-3.76-2.81,12.53,12.53,0,0,1-2.37-4.17,15.93,15.93,0,0,1,0-10.12,12.39,12.39,0,0,1,2.37-4.16,11.27,11.27,0,0,1,3.76-2.84A11.72,11.72,0,0,1,325.55,112.38Zm0,3.56a7,7,0,0,0-3.45.81,6.67,6.67,0,0,0-2.36,2.15,9.54,9.54,0,0,0-1.35,3.06,14.3,14.3,0,0,0,0,7,9.69,9.69,0,0,0,1.35,3.07,6.77,6.77,0,0,0,2.36,2.15,7.88,7.88,0,0,0,6.9,0,7,7,0,0,0,2.36-2.15,9.92,9.92,0,0,0,1.35-3.07,14.3,14.3,0,0,0,0-7,9.76,9.76,0,0,0-1.35-3.06,6.85,6.85,0,0,0-2.36-2.15A7,7,0,0,0,325.55,115.94Z" transform="translate(0 -0.44)"/><path d="M347.81,113h4.45l4.51,19.11h.07l5-19.11h4.48l4.9,19.11h.07L376,113h4.44l-6.89,25H369.1l-5-19.11H364L358.89,138h-4.52Z" transform="translate(0 -0.44)"/><path d="M394.92,129.63a5.46,5.46,0,0,0,.49,2.45,4.33,4.33,0,0,0,1.37,1.66,5.86,5.86,0,0,0,2,.95,9.71,9.71,0,0,0,2.47.29,8.51,8.51,0,0,0,2.45-.33,5,5,0,0,0,1.64-.86,3.36,3.36,0,0,0,.91-1.2,3.86,3.86,0,0,0,.28-1.38,3,3,0,0,0-.65-2.12,3.51,3.51,0,0,0-1.41-1,28.28,28.28,0,0,0-3.1-.93c-1.18-.29-2.63-.67-4.36-1.14a9.53,9.53,0,0,1-2.68-1.1,6.47,6.47,0,0,1-1.69-1.52,5.39,5.39,0,0,1-.9-1.79,7,7,0,0,1-.26-1.92,6.35,6.35,0,0,1,.79-3.28,6.91,6.91,0,0,1,2.08-2.29,8.84,8.84,0,0,1,2.94-1.35,13.41,13.41,0,0,1,7,.07,9.24,9.24,0,0,1,3,1.52,7.58,7.58,0,0,1,2.09,2.51,7.48,7.48,0,0,1,.77,3.45h-4.38a4.25,4.25,0,0,0-1.64-3.42,6.56,6.56,0,0,0-3.75-1,8.2,8.2,0,0,0-1.57.16,4.47,4.47,0,0,0-1.47.53,2.91,2.91,0,0,0-.72,4.65,5.32,5.32,0,0,0,2.15,1.14l1.1.3,2.16.57,2.32.62,1.63.43a7.25,7.25,0,0,1,2.14,1.06,6.85,6.85,0,0,1,1.52,1.52,6.4,6.4,0,0,1,.91,1.83,6.73,6.73,0,0,1,.3,2,7.24,7.24,0,0,1-.86,3.59,7.4,7.4,0,0,1-2.26,2.43,9.82,9.82,0,0,1-3.18,1.39,15.32,15.32,0,0,1-7.64-.09,9.52,9.52,0,0,1-3.29-1.61,7.94,7.94,0,0,1-2.24-2.78,9.07,9.07,0,0,1-.87-4Z" transform="translate(0 -0.44)"/><path d="M455.3,135.16a9.16,9.16,0,0,1-3.1,2.5,9.05,9.05,0,0,1-3.9.79,9.48,9.48,0,0,1-3.17-.51,7.2,7.2,0,0,1-2.5-1.45,6.31,6.31,0,0,1-1.63-2.33,7.84,7.84,0,0,1-.58-3.13,5.58,5.58,0,0,1,.49-2.42,7.32,7.32,0,0,1,1.3-2A9.3,9.3,0,0,1,444,125a19.64,19.64,0,0,1,2.12-1.25c-.33-.43-.64-.84-.94-1.25a8.52,8.52,0,0,1-.81-1.27,6.79,6.79,0,0,1-.56-1.41,5,5,0,0,1-.21-1.53,5.88,5.88,0,0,1,.47-2.45,5.48,5.48,0,0,1,1.32-1.88,6,6,0,0,1,2-1.21,6.62,6.62,0,0,1,2.38-.41,7.65,7.65,0,0,1,2.32.36,5.49,5.49,0,0,1,3.38,3,6.38,6.38,0,0,1,.53,2.63,6,6,0,0,1-.37,2.06,7.35,7.35,0,0,1-1,1.74,9.21,9.21,0,0,1-1.44,1.42,12.69,12.69,0,0,1-1.73,1.11l3.89,4.69c.14-.39.28-.85.42-1.36a15.22,15.22,0,0,0,.35-2h3.5a19.87,19.87,0,0,1-.65,3.23,12.41,12.41,0,0,1-1.31,2.9l4.79,5.81h-4.9Zm-7-8.75c-.37.23-.78.47-1.22.7a5.19,5.19,0,0,0-1.25.87,4.76,4.76,0,0,0-1,1.27,3.71,3.71,0,0,0-.4,1.85,4,4,0,0,0,1.14,3.11,4,4,0,0,0,2.89,1.09,5.32,5.32,0,0,0,1.85-.3,6.16,6.16,0,0,0,1.31-.71,5.6,5.6,0,0,0,.91-.91l.65-.88Zm1.61-11.06a2.56,2.56,0,0,0-1.89.75,2.62,2.62,0,0,0-.77,2,2.85,2.85,0,0,0,.23,1.18,5.8,5.8,0,0,0,.56,1,9.8,9.8,0,0,0,.73,1c.27.32.52.64.76.94.37-.26.73-.52,1.08-.79a7.84,7.84,0,0,0,.95-.87,3.58,3.58,0,0,0,.91-2.4,3.09,3.09,0,0,0-.7-2,2.29,2.29,0,0,0-1.9-.81Z" transform="translate(0 -0.44)"/><path d="M491.87,113h10.36a11.65,11.65,0,0,1,5,1,9.16,9.16,0,0,1,3.43,2.68,11.4,11.4,0,0,1,2,4,18.67,18.67,0,0,1,0,9.73,11.58,11.58,0,0,1-2,4,9.36,9.36,0,0,1-3.43,2.68,12,12,0,0,1-5,1H491.87Zm4.38,21.42h4.3a11.25,11.25,0,0,0,4.18-.68,6.31,6.31,0,0,0,2.56-1.89,6.93,6.93,0,0,0,1.26-2.84,19.15,19.15,0,0,0,0-7,6.88,6.88,0,0,0-1.26-2.84,6.22,6.22,0,0,0-2.56-1.89,10.86,10.86,0,0,0-4.18-.68h-4.3Z" transform="translate(0 -0.44)"/><path d="M536.53,112.38a11.65,11.65,0,0,1,5,1,11.41,11.41,0,0,1,3.77,2.84,12.71,12.71,0,0,1,2.36,4.16,16.07,16.07,0,0,1,0,10.12,13,13,0,0,1-2.36,4.17,11.32,11.32,0,0,1-3.77,2.81,12.68,12.68,0,0,1-10,0,11,11,0,0,1-3.76-2.81,12.53,12.53,0,0,1-2.37-4.17,15.93,15.93,0,0,1,0-10.12,12.39,12.39,0,0,1,2.37-4.16,11.27,11.27,0,0,1,3.76-2.84A11.62,11.62,0,0,1,536.53,112.38Zm0,3.56a7,7,0,0,0-3.45.81,6.67,6.67,0,0,0-2.36,2.15,9.33,9.33,0,0,0-1.35,3.06,14.3,14.3,0,0,0,0,7,9.47,9.47,0,0,0,1.35,3.07,6.77,6.77,0,0,0,2.36,2.15,7.88,7.88,0,0,0,6.9,0,7,7,0,0,0,2.36-2.15,9.92,9.92,0,0,0,1.35-3.07,14.54,14.54,0,0,0,0-7,9.76,9.76,0,0,0-1.35-3.06,6.85,6.85,0,0,0-2.36-2.15A7,7,0,0,0,536.53,115.94Z" transform="translate(0 -0.44)"/><path d="M571.88,112.38a11.65,11.65,0,0,1,5,1,11.41,11.41,0,0,1,3.77,2.84,13,13,0,0,1,2.35,4.24,16.07,16.07,0,0,1,0,10.12,13,13,0,0,1-2.36,4.17,11.32,11.32,0,0,1-3.77,2.81,12.68,12.68,0,0,1-10,0,11,11,0,0,1-3.76-2.81,12.53,12.53,0,0,1-2.37-4.17,15.93,15.93,0,0,1,0-10.12,12.39,12.39,0,0,1,2.37-4.16,11.27,11.27,0,0,1,3.76-2.84A11.56,11.56,0,0,1,571.88,112.38Zm0,3.56a7,7,0,0,0-3.45.81,6.67,6.67,0,0,0-2.36,2.15,9.33,9.33,0,0,0-1.35,3.06,14.3,14.3,0,0,0,0,7,9.47,9.47,0,0,0,1.35,3.07,6.77,6.77,0,0,0,2.36,2.15,7.88,7.88,0,0,0,6.9,0,7,7,0,0,0,2.36-2.15A9.82,9.82,0,0,0,579,129a14.3,14.3,0,0,0,0-7,9.76,9.76,0,0,0-1.35-3.06,6.69,6.69,0,0,0-5.77-3Z" transform="translate(0 -0.44)"/><path d="M596.59,113h11.94q4.13,0,6.19,1.78a6.26,6.26,0,0,1,2.07,5,7.28,7.28,0,0,1-.53,3,6.88,6.88,0,0,1-1.22,1.89,4.93,4.93,0,0,1-1.39,1c-.33.15-.66.29-1,.41v.07a4.7,4.7,0,0,1,1.2.35,3.68,3.68,0,0,1,1.21.9,5.08,5.08,0,0,1,.93,1.59,7.29,7.29,0,0,1,.37,2.45,22.34,22.34,0,0,0,.33,4,5.13,5.13,0,0,0,1,2.57H613a4.11,4.11,0,0,1-.58-1.79c-.06-.65-.08-1.28-.08-1.88a21.4,21.4,0,0,0-.21-3,5.26,5.26,0,0,0-.78-2.07,3.2,3.2,0,0,0-1.52-1.2,6.48,6.48,0,0,0-2.46-.39H601V138h-4.37ZM601,124.34h7.18a4.6,4.6,0,0,0,3.19-1,3.92,3.92,0,0,0,1.08-3,4.7,4.7,0,0,0-.35-2,2.84,2.84,0,0,0-1-1.17,3.47,3.47,0,0,0-1.4-.56,9,9,0,0,0-1.63-.14H601Z" transform="translate(0 -0.44)"/><path d="M632.85,129.63a5.46,5.46,0,0,0,.49,2.45,4.33,4.33,0,0,0,1.37,1.66,5.86,5.86,0,0,0,2,.95,9.71,9.71,0,0,0,2.47.29,8.12,8.12,0,0,0,2.44-.33,4.91,4.91,0,0,0,1.65-.86,3.36,3.36,0,0,0,.91-1.2,3.86,3.86,0,0,0,.28-1.38,3,3,0,0,0-.65-2.12,3.51,3.51,0,0,0-1.41-1,28.28,28.28,0,0,0-3.1-.93c-1.18-.29-2.63-.67-4.36-1.14a9.53,9.53,0,0,1-2.68-1.1,6.47,6.47,0,0,1-1.69-1.52,5.39,5.39,0,0,1-.9-1.79,7,7,0,0,1-.26-1.92,6.35,6.35,0,0,1,.79-3.28,6.91,6.91,0,0,1,2.08-2.29,8.84,8.84,0,0,1,2.94-1.35,13.41,13.41,0,0,1,7,.07,9.24,9.24,0,0,1,3,1.52,7.58,7.58,0,0,1,2.09,2.51,7.48,7.48,0,0,1,.77,3.45H643.7a4.22,4.22,0,0,0-1.65-3.42,6.45,6.45,0,0,0-3.74-1,8.38,8.38,0,0,0-1.58.16,5.07,5.07,0,0,0-1.47.53,3.1,3.1,0,0,0-1.1,1,3,3,0,0,0,.39,3.65,5.32,5.32,0,0,0,2.15,1.14l1.1.3,2.16.57,2.32.62,1.63.43a7.25,7.25,0,0,1,2.14,1.06,6.85,6.85,0,0,1,1.52,1.52,6.4,6.4,0,0,1,.91,1.83,7.11,7.11,0,0,1,.29,2,7.23,7.23,0,0,1-.85,3.59,7.4,7.4,0,0,1-2.26,2.43,10,10,0,0,1-3.19,1.39,15.28,15.28,0,0,1-7.63-.09,9.52,9.52,0,0,1-3.29-1.61,7.94,7.94,0,0,1-2.24-2.78,9.22,9.22,0,0,1-.88-4Z" transform="translate(0 -0.44)"/><path class="cls-1" d="M202.2,28V41.17h.27a23.73,23.73,0,0,1,3.71-6.11,24,24,0,0,1,5.35-4.81A25.5,25.5,0,0,1,218,27.16a23,23,0,0,1,7.14-1.1,15.06,15.06,0,0,1,4.26.69V44.87q-1.38-.27-3.3-.48a32.76,32.76,0,0,0-3.7-.2A20.81,20.81,0,0,0,213.33,46a15.64,15.64,0,0,0-6,4.87,19.55,19.55,0,0,0-3.22,7.21,38.88,38.88,0,0,0-1,8.93v33.47h-19.5V28Zm50.54,54q4.38,4.26,12.63,4.26a17.47,17.47,0,0,0,10.16-2.95c2.84-2,4.58-4.09,5.22-6.25h17.16Q293.8,89.82,285.28,95.3t-20.6,5.49a40.73,40.73,0,0,1-15.1-2.67,31.36,31.36,0,0,1-11.4-7.63A34.07,34.07,0,0,1,231,78.66a43.26,43.26,0,0,1-2.54-15.11A41.18,41.18,0,0,1,231,48.72a34.35,34.35,0,0,1,18.88-19.78,36.62,36.62,0,0,1,14.76-2.88,33.8,33.8,0,0,1,15.8,3.5,31.58,31.58,0,0,1,11,9.41,38.78,38.78,0,0,1,6.34,13.49,50.23,50.23,0,0,1,1.37,15.79H247.93c.28,6.28,1.87,10.87,4.81,13.7Zm22-37.35q-3.51-3.84-10.65-3.84a16.82,16.82,0,0,0-7.75,1.57,14.55,14.55,0,0,0-4.95,3.92,14.32,14.32,0,0,0-2.61,4.94,22.4,22.4,0,0,0-.89,4.67h31.72q-1.32-7.44-4.83-11.29ZM326.85,28v9.62h.28a27.52,27.52,0,0,1,9.27-8.52,25,25,0,0,1,12.42-3,28.5,28.5,0,0,1,12.29,2.61,17.25,17.25,0,0,1,8.45,9.2,30.07,30.07,0,0,1,8.58-8.24A22.85,22.85,0,0,1,391,26.06a37.3,37.3,0,0,1,10.45,1.4,20.93,20.93,0,0,1,8.25,4.39,20.25,20.25,0,0,1,5.35,7.89A32.26,32.26,0,0,1,417,51.46v49H397.48V58.74c0-2.38-.1-4.62-.28-6.72a14.6,14.6,0,0,0-1.51-5.5,9.28,9.28,0,0,0-3.64-3.71,13.18,13.18,0,0,0-6.52-1.37A12.37,12.37,0,0,0,378.87,43a11.45,11.45,0,0,0-4,4.12A16.38,16.38,0,0,0,373,52.91a41.9,41.9,0,0,0-.48,6.52v41H353V59.16c0-2.11,0-4.19-.14-6.25a17.92,17.92,0,0,0-1.16-5.7A8.78,8.78,0,0,0,348.26,43c-1.6-1.06-4-1.58-7.07-1.58a14.46,14.46,0,0,0-3.64.62,12,12,0,0,0-4.39,2.33,13.51,13.51,0,0,0-3.64,5A19.85,19.85,0,0,0,328,57.78v42.68h-19.5V28Zm122.76,0v72.45h-19.5V28Zm60.74,72.45V89.1h-.41A22.09,22.09,0,0,1,500.33,98a28.57,28.57,0,0,1-12.09,2.74,34.19,34.19,0,0,1-12.84-2.05,18.54,18.54,0,0,1-7.89-5.84,22.5,22.5,0,0,1-4-9.2,56.26,56.26,0,0,1-1.17-12V28h19.5v40.1q0,8.79,2.74,13.11c1.83,2.89,5.09,4.34,9.75,4.34,5.31,0,9.16-1.59,11.54-4.74s3.57-8.36,3.57-15.59V28h19.5v72.48ZM559.92,28V37.6h.27a27.52,27.52,0,0,1,9.27-8.52,25,25,0,0,1,12.43-3,28.65,28.65,0,0,1,12.29,2.61,17.25,17.25,0,0,1,8.45,9.2,30.07,30.07,0,0,1,8.58-8.24,22.78,22.78,0,0,1,12.84-3.57,37.56,37.56,0,0,1,10.43,1.38,20.89,20.89,0,0,1,8.24,4.39,20.17,20.17,0,0,1,5.36,7.89A32.26,32.26,0,0,1,650,51.46v49H630.5V58.74q0-3.57-.27-6.72a14.6,14.6,0,0,0-1.51-5.5,9.28,9.28,0,0,0-3.64-3.71,13.18,13.18,0,0,0-6.52-1.37A12.37,12.37,0,0,0,611.9,43a11.45,11.45,0,0,0-4,4.12A16.38,16.38,0,0,0,606,52.91a41.9,41.9,0,0,0-.48,6.52v41H586V59.16c0-2.11,0-4.19-.14-6.25a17.92,17.92,0,0,0-1.16-5.7A8.78,8.78,0,0,0,581.26,43c-1.6-1.06-4-1.58-7.07-1.58a14.46,14.46,0,0,0-3.64.62,12,12,0,0,0-4.39,2.33,13.51,13.51,0,0,0-3.64,5A19.85,19.85,0,0,0,561,57.78v42.68h-19.5V28ZM144.22.46a40.61,40.61,0,0,1,15.65,2.68,29.3,29.3,0,0,1,10.51,7.07,27.32,27.32,0,0,1,5.9,10,37.64,37.64,0,0,1,0,23.28,27.06,27.06,0,0,1-5.9,10.09,29.56,29.56,0,0,1-10.51,7.07,40.8,40.8,0,0,1-15.65,2.68H121.56v37.13H100V.46Zm-6.8,46.14a45,45,0,0,0,7.14-.55,16.58,16.58,0,0,0,6.05-2.13,11.73,11.73,0,0,0,4.19-4.46,18.91,18.91,0,0,0,0-15.11,11.59,11.59,0,0,0-4.19-4.46,16.58,16.58,0,0,0-6.05-2.13,45,45,0,0,0-7.14-.55H120.67V46.6ZM100,100.46,0,.46v100ZM430.73,17V.46h19.5V17Z" transform="translate(0 -0.44)"/></g></svg>